<svg width="70" height="52" viewBox="0 0 70 52" fill="none" xmlns="http://www.w3.org/2000/svg">
<path d="M57.9577 22.2695V15.0677C57.9577 12.9622 56.2641 11.2533 54.1585 11.238H42.3489V4.52457C42.3489 2.58682 40.8231 1 38.9464 1H20.0114C18.1347 1 16.6089 2.58682 16.6089 4.52457V11.238H4.79931C2.69373 11.2533 0.984844 12.9622 1.0001 15.0677V46.5752C1.0001 48.6808 2.69373 50.3897 4.79931 50.4049H49.7184C51.0917 50.8017 52.5259 51 53.9449 51C62.2146 51 68.9433 44.4391 68.9433 36.3677C68.9433 29.6543 64.2897 23.9936 57.9577 22.2695ZM56.2946 15.0677V21.9185C53.8838 21.5523 51.4121 21.7507 49.0929 22.5288V12.9011H54.1432C55.3486 12.9011 56.3098 13.8776 56.2946 15.0677ZM18.2567 4.52457C18.2567 3.50229 19.0349 2.66311 19.9961 2.66311H38.9311C39.8924 2.66311 40.6705 3.50229 40.6705 4.52457V11.238H39.0379V5.34849C39.0379 4.75343 38.5497 4.26518 37.9546 4.26518H20.9879C20.3928 4.26518 19.9046 4.75343 19.9046 5.34849V11.238H18.2567V4.52457ZM21.5524 11.238V5.92829H37.3748V11.238H21.5524ZM2.64795 46.5752V15.0677C2.64795 13.8776 3.59394 12.9011 4.78405 12.8859H9.8344V48.7418H4.78405C3.59394 48.7418 2.64795 47.7653 2.64795 46.5752ZM11.5128 48.7418V12.8859H47.445V23.1849C42.4252 25.5499 38.9616 30.5697 38.9616 36.3677C38.9616 41.5706 41.7691 46.148 45.965 48.7418H11.5128ZM53.9449 49.3369C46.5906 49.3369 40.6095 43.5237 40.6095 36.3677C40.6095 29.2118 46.5906 23.3985 53.9449 23.3985C61.2991 23.3985 67.2802 29.2118 67.2802 36.3677C67.2802 43.5237 61.2991 49.3369 53.9449 49.3369Z" fill="white" stroke="white" stroke-width="0.5" stroke-miterlimit="10"/>
<path d="M54.9977 28.8455V27.8537C54.9977 26.7552 53.3346 26.7552 53.3346 27.8537V28.8455C52.587 28.9523 51.8851 29.3032 51.3358 29.822C50.1915 30.9358 50.1304 32.4921 50.1304 32.9346C50.161 34.6893 51.4884 36.1693 53.3804 36.5355L53.5635 36.566C53.7008 36.5965 53.8534 36.627 53.9602 36.6423C54.0212 36.6575 54.1738 36.7033 54.2501 36.7185C54.2806 36.7185 54.2958 36.7338 54.3264 36.7491C54.3416 36.7491 54.3416 36.7643 54.3569 36.7643L54.6163 36.8559C54.6468 36.8711 54.662 36.8711 54.6773 36.8864C54.7994 36.9474 54.8451 36.9627 54.9214 37.0237L55.0892 37.1153C55.1045 37.1153 55.1045 37.1305 55.1198 37.1305C55.3792 37.2831 56.7066 38.1528 56.7676 39.3887C56.7981 40.1363 56.615 40.7008 56.1878 41.1128C55.5165 41.7842 54.4026 41.9215 53.8534 41.9062C53.0447 41.8757 51.4731 41.1738 51.3358 39.938C51.2138 38.8394 49.5659 39.0225 49.688 40.121C49.9016 42.0588 51.8088 43.2642 53.3346 43.5083V44.3475C53.3346 45.446 54.9977 45.446 54.9977 44.3475V43.4625C55.8827 43.3099 56.7066 42.898 57.3627 42.2724C58.1103 41.5248 58.4765 40.5025 58.4307 39.2971C58.3392 37.2678 56.5387 36.0319 55.9895 35.681L55.9132 35.6352L55.7759 35.559C55.6691 35.4979 55.608 35.4674 55.4554 35.3759C55.3792 35.3453 55.3029 35.2996 55.2266 35.2691L54.9824 35.1775C54.9062 35.147 54.8299 35.1165 54.7536 35.1012C54.5857 35.0554 54.4332 35.0097 54.2958 34.9792C54.2043 34.9639 54.0365 34.9334 53.8991 34.9029L53.716 34.8723C52.4191 34.6282 51.8241 33.6822 51.8088 32.8736C51.7936 32.2938 51.9767 31.4851 52.5107 30.9663C52.9379 30.5544 53.5482 30.356 54.3416 30.3865C56.4777 30.4781 56.9812 32.1717 57.027 32.3701C57.3016 33.4229 58.8885 33.0414 58.6443 31.9734C58.1561 30.3408 56.7218 29.1049 54.9977 28.8455Z" fill="white" stroke="white" stroke-width="0.5" stroke-miterlimit="10"/>
</svg>
