<svg width="45" height="45" viewBox="0 0 45 45" fill="none" xmlns="http://www.w3.org/2000/svg">
<path d="M42.8298 15.0125C42.4803 14.089 41.457 13.6272 40.5334 13.9767C39.6099 14.3261 39.1481 15.3495 39.4975 16.2731C41.2074 20.791 41.095 25.7207 39.198 30.1638C37.2386 34.7191 33.6317 38.2386 29.0265 40.0857C24.4212 41.9203 19.3791 41.8579 14.8237 39.911C13.5008 39.3493 12.2652 38.638 11.142 37.8143C8.37135 35.7799 6.21224 33.0093 4.90179 29.7394C3.06717 25.1342 3.12959 20.0921 5.07654 15.5367C7.03596 10.9814 10.6428 7.46189 15.2481 5.61478C19.6537 3.85505 24.4586 3.84257 28.8642 5.55238L27.6037 7.68653C27.2542 8.27311 27.5288 8.66001 28.1903 8.54768L34.1809 7.58669C34.8548 7.47437 35.2168 6.86283 34.9921 6.22632L32.9578 0.510295C32.7332 -0.126206 32.2589 -0.176128 31.9094 0.410451L30.6989 2.45724C25.3073 0.198284 19.3666 0.135882 13.9252 2.30747C8.4338 4.50403 4.12803 8.69745 1.80667 14.1264C-0.527164 19.5554 -0.602025 25.571 1.59453 31.0624C3.15458 34.9562 5.72556 38.2635 9.02039 40.6848C10.3683 41.6707 11.8409 42.5194 13.4134 43.1933C18.8424 45.5271 24.858 45.602 30.3494 43.4055C35.8408 41.2089 40.1465 37.0155 42.4679 31.5865C44.7393 26.2699 44.8641 20.3916 42.8298 15.0125Z" fill="white"/>
<path d="M19.791 10.4822C18.9922 10.4822 18.3557 11.1312 18.3557 11.9175V26.2699L31.4851 33.0593C31.6973 33.1716 31.9219 33.2215 32.1466 33.2215C32.6707 33.2215 33.17 32.9345 33.4321 32.4477C33.794 31.7364 33.5194 30.8752 32.8081 30.5008L21.2387 24.5227V11.9299C21.2262 11.1312 20.5897 10.4822 19.791 10.4822Z" fill="white"/>
</svg>
