<svg width="50" height="55" viewBox="0 0 50 55" fill="none" xmlns="http://www.w3.org/2000/svg">
<path d="M1.08116 55H48.3619C48.9548 55 49.4314 54.5234 49.4314 53.9305C49.4314 47.2923 45.1184 41.0495 39.1778 39.0615L34.0742 37.3642L32.2374 33.7022C33.8882 32.0165 35.0391 29.796 35.4227 27.4709L35.6553 26.0991H37.6083C39.387 26.0991 40.8286 24.6576 40.8286 22.8789V16.1129C40.8286 7.23103 33.5975 0 24.7157 0C15.8106 0 8.60283 7.20778 8.60283 16.1129V22.8789C8.60283 24.2739 9.49797 25.4714 10.7535 25.9131V27.1687C10.7535 28.9474 12.1951 30.3889 13.9738 30.3889H14.9155C15.3805 31.4003 15.985 32.342 16.7174 33.179C16.8685 33.3534 17.0313 33.5278 17.194 33.6905L15.3572 37.3526L10.2536 39.0499C4.31303 41.0262 0 47.2807 0 53.9188C0.0116254 54.5233 0.48826 55 1.08116 55ZM24.7273 51.896L23.2742 49.5593C23.2625 49.536 23.2393 49.5128 23.2276 49.4779C22.3557 48.3154 21.542 47.1063 20.8096 45.8624L24.646 41.8051L28.68 45.8391C27.936 47.0947 27.1222 48.3154 26.2503 49.4663C26.1805 49.5477 26.2503 49.443 24.7273 51.896ZM29.7495 43.8977L26.0991 40.2473L30.6912 35.3879L32.156 38.3059C31.4933 40.2357 30.6912 42.0957 29.7495 43.8977ZM24.5762 38.7244L22.4836 36.6318C23.216 36.7829 23.9717 36.8643 24.7273 36.8643C25.3202 36.8643 25.9015 36.8178 26.4828 36.7248L24.5762 38.7244ZM18.5658 35.7483L23.0998 40.2822L19.6935 43.8861C18.7518 42.0958 17.9497 40.2241 17.2871 38.3059L18.5658 35.7483ZM47.2458 52.8493H26.6572L27.9824 50.7218C29.0636 49.2803 30.0518 47.7573 30.947 46.1995C30.947 46.1879 30.9586 46.1763 30.9586 46.1763C32.1444 44.0837 33.1674 41.8749 33.9812 39.5963L38.5035 41.1076C43.2816 42.6887 46.8157 47.5248 47.2458 52.8493ZM11.8231 23.9484C11.2302 23.9484 10.7535 23.4718 10.7535 22.8789V17.1824H12.9391C12.9391 17.2987 12.9508 17.4033 12.9508 17.5195V17.5312C13.0205 19.6935 13.2065 21.8791 13.4739 23.9484H11.8231ZM34.3881 16.078C34.3881 16.078 34.3881 16.0896 34.3881 16.078L33.0395 15.892C29.3891 15.3688 25.9364 13.6483 23.3323 11.0325C23.1346 10.8349 22.8556 10.7187 22.5766 10.7187C19.6935 10.7187 16.9267 12.0323 15.1015 14.2528C15.5549 9.88163 19.2517 6.41724 23.7624 6.41724H25.6806C30.4935 6.41724 34.3881 10.3583 34.3881 15.1596C34.3997 15.52 34.3881 15.8106 34.3881 16.078ZM38.6895 22.8673C38.6895 23.4602 38.2129 23.9368 37.62 23.9368H35.9808C36.2481 21.821 36.4342 19.5656 36.5039 17.3568C36.5039 17.2987 36.5039 17.2289 36.5155 17.1708H38.7011V22.8673H38.6895ZM24.7273 2.13908C32.063 2.13908 38.1082 7.83554 38.6546 15.0317H36.5504C36.469 9.10272 31.6445 4.28979 25.6922 4.28979H23.774C17.8334 4.28979 12.9973 9.10272 12.9159 15.0317H10.8C11.3348 7.82392 17.3452 2.13908 24.7273 2.13908ZM12.9042 27.1687V26.0991H13.7878L14.0203 27.4709C14.0668 27.7267 14.1133 27.9941 14.183 28.2498H13.9854C13.3809 28.2498 12.9042 27.7616 12.9042 27.1687ZM19.5308 30.3889C19.9725 31.6445 21.1699 32.5396 22.565 32.5396H24.7157C26.4944 32.5396 27.9359 31.0981 27.9359 29.3194C27.9359 27.5407 26.4944 26.0991 24.7157 26.0991H22.565C21.1351 26.0991 19.9609 27.0292 19.5191 28.2498H16.3802C15.8455 26.4595 15.2293 21.1932 15.0898 17.8218L16.5314 15.892C17.8567 14.1249 19.926 13.0205 22.1232 12.8926C25.0179 15.6479 28.7614 17.4614 32.714 18.0311L34.2951 18.252C34.1904 20.4957 33.9696 22.751 33.6673 24.8203C33.5743 25.483 33.4929 25.9131 33.2953 27.1105C32.7256 30.5284 30.1797 33.6092 26.8199 34.4462C25.4365 34.795 23.9833 34.795 22.5999 34.4462C20.4957 33.923 18.5775 32.4699 17.3335 30.3889H19.5308ZM21.4955 29.3194C21.4955 28.7265 21.9721 28.2498 22.565 28.2498H24.7157C25.3086 28.2498 25.7853 28.7265 25.7853 29.3194C25.7853 29.9123 25.3086 30.3889 24.7157 30.3889H22.565C21.9837 30.3889 21.4955 29.9123 21.4955 29.3194ZM10.9395 41.096L15.4619 39.5847C16.2873 41.8749 17.3219 44.1069 18.5194 46.2228C18.5194 46.2228 18.5193 46.2344 18.531 46.2344C19.4145 47.7806 20.4026 49.2919 21.4722 50.7218L22.7975 52.8493H2.20883C2.62734 47.5248 6.1731 42.6886 10.9395 41.096Z" fill="white"/>
</svg>
