<svg width="43" height="42" viewBox="0 0 43 42" fill="none" xmlns="http://www.w3.org/2000/svg">
<path d="M41.6042 32.9417C43.2056 34.5431 43.2056 37.1469 41.6042 38.7361C41.6042 38.7361 41.6041 38.7361 41.5919 38.7483L38.7926 41.5233C38.4747 41.8411 38.0591 42 37.6435 42C37.2156 42 36.8 41.8411 36.4821 41.511C35.8465 40.8631 35.8465 39.8241 36.4944 39.1884L38.1325 37.5625H11.8011C8.18263 37.5625 5.23655 34.6165 5.23655 30.998V4.6422L3.59852 6.25583C2.95063 6.8915 1.91152 6.87928 1.27585 6.24361C0.640184 5.59572 0.652421 4.55664 1.28809 3.92097L4.06298 1.18271C5.65215 -0.394237 8.256 -0.394237 9.84517 1.18271L12.6201 3.92097C13.268 4.55664 13.268 5.59572 12.6323 6.24361C12.3145 6.57367 11.8867 6.73258 11.4588 6.73258C11.0432 6.73258 10.6275 6.57367 10.3097 6.25583L8.51268 4.4833V30.998C8.51268 32.8073 9.9796 34.2742 11.7888 34.2742H38.2792L36.4699 32.4894C35.822 31.8537 35.822 30.8147 36.4577 30.1668C37.0933 29.5189 38.1324 29.5189 38.7803 30.1546L41.6042 32.9417C41.5919 32.9295 41.6042 32.9417 41.6042 32.9417ZM37.888 0.00916006H16.6542C15.7496 0.00916006 15.0161 0.742632 15.0161 1.65946C15.0161 2.56407 15.7496 3.29753 16.6542 3.29753H37.888C38.7926 3.29753 39.526 4.03099 39.526 4.93559V26.255C39.526 27.1596 40.2595 27.893 41.1641 27.893C42.0687 27.893 42.8144 27.1596 42.8144 26.255V4.93559C42.8021 2.20955 40.6018 0.00916006 37.888 0.00916006ZM24.93 28.1253C25.8347 28.1253 26.5682 27.3918 26.5682 26.4872V19.1893C26.5682 16.7077 24.5511 14.6784 22.0573 14.6784C20.9694 14.6784 19.967 15.0696 19.1846 15.7175C18.4023 15.0696 17.3998 14.6784 16.3119 14.6784C15.6884 14.6784 15.0894 14.8129 14.5515 15.0329C14.2582 14.764 13.867 14.6051 13.4514 14.6051C12.5468 14.6051 11.8133 15.3386 11.8133 16.2432V26.4872C11.8133 27.3918 12.5468 28.1253 13.4514 28.1253C14.356 28.1253 15.0894 27.3918 15.0894 26.4872V19.177C15.0894 18.5047 15.6395 17.9424 16.3241 17.9424C17.0087 17.9424 17.5588 18.4925 17.5588 19.177V26.4872C17.5588 27.3918 18.2922 28.1253 19.1968 28.1253C20.1014 28.1253 20.8349 27.3918 20.8349 26.4872V19.177C20.8349 18.5047 21.385 17.9424 22.0696 17.9424C22.7541 17.9424 23.3043 18.4925 23.3043 19.177V26.475C23.292 27.3918 24.0254 28.1253 24.93 28.1253ZM32.3625 8.85964C32.3503 8.85964 32.3503 8.85964 32.338 8.85964C32.3258 8.85964 32.3259 8.85964 32.3136 8.85964C30.2233 8.85964 28.5363 10.5588 28.5363 12.6492C28.5363 13.5538 29.2698 14.2873 30.1744 14.2873C31.079 14.2873 31.8124 13.5538 31.8124 12.6492C31.8124 12.3803 32.0447 12.148 32.3136 12.148C32.3259 12.148 32.3258 12.148 32.338 12.148C32.3503 12.148 32.3503 12.148 32.3625 12.148C32.6192 12.148 32.8515 12.3558 32.8638 12.6248C32.8271 12.747 32.5826 13.4927 31.0056 15.2163C30.0277 16.2921 29.0741 17.16 29.0619 17.1722C28.5607 17.6245 28.3896 18.3458 28.6341 18.9814C28.8786 19.6171 29.4898 20.0327 30.1621 20.0327H34.5874C35.492 20.0327 36.2255 19.2993 36.2255 18.3947C36.2255 17.4901 35.492 16.7566 34.5874 16.7566H34.025C35.4797 15.0452 36.1399 13.7616 36.1399 12.6736C36.1521 10.5588 34.4529 8.85964 32.3625 8.85964Z" fill="white"/>
</svg>
