<svg width="53" height="52" viewBox="0 0 53 52" fill="none" xmlns="http://www.w3.org/2000/svg">
<path d="M51.5584 24.2898C50.7691 23.5602 49.6927 23.1058 48.6044 23.0579C47.3726 22.9981 46.2244 23.4287 45.3634 24.2898L39.4912 30.1021C39.3716 29.8988 39.2401 29.7074 39.0966 29.54C38.379 28.6789 37.3146 28.2125 36.1186 28.2125H27.9024C26.3477 28.2125 24.8408 28.0092 23.4057 27.6145C19.6743 26.586 16.1104 27.3394 13.0966 29.7911C11.8647 30.7957 10.9797 31.8841 10.4057 32.6734L8.93467 31.2382C8.74331 31.0469 8.48018 30.9393 8.20512 30.9393C8.20512 30.9393 8.2051 30.9393 8.19314 30.9393C7.91808 30.9393 7.64301 31.0588 7.45166 31.2622L0.287918 38.701C0.0965661 38.9043 -0.0110579 39.1674 0.000901586 39.4425C0.0128611 39.7175 0.120484 39.9806 0.323796 40.172L12.4388 51.7129C12.6421 51.9043 12.8933 52 13.1564 52C13.4314 52 13.6945 51.8923 13.8979 51.689L20.9898 44.4057C21.1812 44.2024 21.2888 43.9393 21.2888 43.6522C21.2888 43.3772 21.1693 43.114 20.9659 42.9227L20.344 42.3247L21.7553 42.1692C22.6164 42.0736 23.4774 42.0138 24.3385 42.0138H36.8482C38.8813 42.0138 40.6035 41.5713 41.9788 40.6982C41.9908 40.6863 42.0027 40.6863 42.0147 40.6743C42.505 40.3275 42.9475 39.9328 43.3422 39.4664L51.7737 29.5519C53.2208 27.8657 53.1251 25.7488 51.5584 24.2898ZM13.1205 49.5004L2.50044 39.3946L8.21709 33.4507L18.7773 43.6881L13.1205 49.5004ZM50.195 28.2125L41.7635 38.1269C41.5004 38.4379 41.1895 38.7249 40.8546 38.9521C39.8261 39.6099 38.4866 39.9328 36.8601 39.9328H24.3505C23.4057 39.9328 22.4609 39.9926 21.528 40.1002L18.4186 40.4471L11.9126 34.1324C12.367 33.4627 13.1922 32.3744 14.4001 31.3937C16.8997 29.3486 19.746 28.7507 22.8436 29.5998C24.4581 30.0423 26.1563 30.2695 27.8905 30.2695H36.1067C37.5777 30.2695 37.9724 31.5492 37.9724 32.3026C37.9724 32.8528 37.793 33.379 37.482 33.7497C37.1472 34.1444 36.6688 34.3477 36.0708 34.3477H28.919C28.345 34.3477 27.8785 34.8141 27.8785 35.3882C27.8785 35.9623 28.345 36.4287 28.919 36.4287H36.0708C37.2787 36.4287 38.3431 35.9623 39.0726 35.1012C39.6826 34.3836 40.0175 33.4508 40.0533 32.4581L46.8105 25.7608C47.7792 24.7921 49.2861 25.0312 50.1352 25.8206C50.5777 26.2152 51.1637 27.0644 50.195 28.2125Z" fill="white"/>
<path d="M7.02125 21.9098H17.139C17.6891 21.9098 18.2034 21.7305 18.61 21.4315C19.0286 21.7305 19.5309 21.9098 20.081 21.9098H30.1988C30.7489 21.9098 31.2632 21.7305 31.6698 21.4315C32.0884 21.7305 32.5907 21.9098 33.1408 21.9098H43.2586C44.6459 21.9098 45.7701 20.7856 45.7701 19.3983V14.6743C45.7701 12.5575 44.5861 10.7157 42.8041 9.80681C43.6652 8.76633 44.1795 7.43882 44.1795 5.99172C44.1795 2.69089 41.4886 0 38.1878 0C34.8869 0 32.196 2.69089 32.196 5.99172C32.196 7.43882 32.7103 8.77829 33.5714 9.80681C32.806 10.2015 32.1482 10.7636 31.6459 11.4572C31.1436 10.7636 30.4858 10.2015 29.7204 9.80681C30.5815 8.76633 31.0958 7.43882 31.0958 5.99172C31.0958 2.69089 28.4049 0 25.104 0C21.8032 0 19.1123 2.69089 19.1123 5.99172C19.1123 7.43882 19.6266 8.77829 20.4876 9.80681C19.7222 10.2015 19.0645 10.7636 18.5622 11.4572C18.0599 10.7636 17.4021 10.2015 16.6367 9.80681C17.4978 8.76633 18.0121 7.43882 18.0121 5.99172C18.0121 2.69089 15.3211 0 12.0203 0C8.71949 0 6.02859 2.69089 6.02859 5.99172C6.02859 7.43882 6.54288 8.77829 7.40396 9.80681C5.62199 10.7157 4.43799 12.5575 4.43799 14.6743V19.3983C4.49779 20.7856 5.63394 21.9098 7.02125 21.9098ZM38.2236 2.069C40.3764 2.069 42.1344 3.82705 42.1344 5.97976C42.1344 8.13247 40.3764 9.89052 38.2236 9.89052C36.059 9.89052 34.3129 8.13247 34.3129 5.97976C34.3129 3.82705 36.0709 2.069 38.2236 2.069ZM35.5327 11.3376C36.346 11.7443 37.2549 11.9834 38.2356 11.9834C39.2043 11.9834 40.1252 11.7443 40.9384 11.3376C42.553 11.6247 43.737 13.012 43.737 14.6743V19.3983C43.737 19.6375 43.5456 19.8408 43.2945 19.8408H33.1767C32.9375 19.8408 32.7342 19.6495 32.7342 19.3983V14.6743C32.7223 13.012 33.9182 11.6127 35.5327 11.3376ZM25.1519 2.069C27.3046 2.069 29.0626 3.82705 29.0626 5.97976C29.0626 8.13247 27.3046 9.89052 25.1519 9.89052C22.9992 9.89052 21.2411 8.13247 21.2411 5.97976C21.2411 3.82705 22.9872 2.069 25.1519 2.069ZM22.449 11.3376C23.2623 11.7443 24.1712 11.9834 25.1519 11.9834C26.1206 11.9834 27.0415 11.7443 27.8547 11.3376C29.4693 11.6247 30.6532 13.012 30.6532 14.6743V19.3983C30.6532 19.6375 30.4619 19.8408 30.2107 19.8408H20.093C19.8538 19.8408 19.6505 19.6495 19.6505 19.3983V14.6743C19.6505 13.012 20.8345 11.6127 22.449 11.3376ZM12.0801 2.069C14.2328 2.069 15.9909 3.82705 15.9909 5.97976C15.9909 8.13247 14.2328 9.89052 12.0801 9.89052C9.92739 9.89052 8.16935 8.13247 8.16935 5.97976C8.15739 3.82705 9.91543 2.069 12.0801 2.069ZM6.57875 14.6743C6.57875 13 7.76274 11.6127 9.37728 11.3376C10.1905 11.7443 11.0994 11.9834 12.0801 11.9834C13.0488 11.9834 13.9697 11.7443 14.783 11.3376C16.3975 11.6247 17.5815 13.012 17.5815 14.6743V19.3983C17.5815 19.6375 17.3901 19.8408 17.139 19.8408H7.02125C6.78206 19.8408 6.57875 19.6495 6.57875 19.3983V14.6743Z" fill="white"/>
</svg>
