<svg width="74" height="35" viewBox="0 0 74 35" fill="none" xmlns="http://www.w3.org/2000/svg">
<path d="M72.2811 0H24.68C23.8692 0 23.2095 0.687081 23.2095 1.53906V4.43855H9.20686C8.3961 4.43855 7.73657 5.12564 7.73657 5.97762C7.73657 6.8296 8.3961 7.51669 9.20686 7.51669H23.2095V27.4833H14.8409C14.0301 27.4833 13.3706 28.1704 13.3706 29.0224C13.3706 29.8744 14.0301 30.5614 14.8409 30.5614H23.2095V33.4609C23.2095 34.3129 23.8692 35 24.68 35H72.2811C73.0919 35 73.7514 34.3129 73.7514 33.4609V1.53906C73.7376 0.687081 73.0919 0 72.2811 0ZM68.6533 3.07813L48.4805 20.4064L28.4039 3.07813H68.6533ZM26.1503 31.9081V5.1119L47.5461 23.5807C47.8209 23.8143 48.1507 23.938 48.4805 23.938C48.8103 23.938 49.1401 23.828 49.415 23.5944L70.8106 5.20809V31.9219H26.1503V31.9081Z" fill="white"/>
<path d="M18.7024 17.342C18.7024 16.4901 18.0427 15.803 17.2319 15.803H1.47028C0.659526 15.803 0 16.4901 0 17.342C0 18.194 0.659526 18.8811 1.47028 18.8811H17.2319C18.0427 18.8811 18.7024 18.194 18.7024 17.342Z" fill="white"/>
<path d="M9.99006 27.4834H9.20686C8.3961 27.4834 7.73657 28.1705 7.73657 29.0224C7.73657 29.8744 8.3961 30.5615 9.20686 30.5615H9.99006C10.8008 30.5615 11.4605 29.8744 11.4605 29.0224C11.4605 28.1705 10.8008 27.4834 9.99006 27.4834Z" fill="white"/>
</svg>
